<svg id="svg" version="1.1" xmlns="http://www.w3.org/2000/svg" xmlns:xlink="http://www.w3.org/1999/xlink" width="400" height="400" viewBox="0, 0, 400,400"><g id="svgg">

<path id="path1" d="M185.000 48.412 C 178.748 48.965,173.512 49.951,166.954 51.812 C 163.628 52.755,158.678 54.014,155.954 54.609 C 149.111 56.103,146.407 56.991,142.000 59.188 C 139.910 60.230,136.052 61.957,133.426 63.026 C 130.800 64.095,127.110 65.944,125.226 67.136 C 123.342 68.328,120.270 70.206,118.400 71.310 C 107.991 77.454,94.451 88.976,85.114 99.632 C 76.856 109.058,66.270 125.120,63.162 132.939 C 62.450 134.733,60.881 138.180,59.677 140.600 C 56.985 146.012,55.959 148.973,54.589 155.291 C 54.004 157.991,52.742 162.918,51.785 166.240 C 46.790 183.582,46.467 210.661,51.060 227.087 C 51.846 229.899,53.432 235.980,54.584 240.600 C 56.389 247.841,57.063 249.828,59.473 255.000 C 61.010 258.300,62.767 262.212,63.377 263.694 C 63.986 265.176,65.124 267.426,65.905 268.694 C 66.686 269.962,68.716 273.355,70.417 276.233 C 82.607 296.857,107.601 320.591,126.299 329.299 C 127.784 329.991,131.070 331.688,133.600 333.071 C 136.887 334.869,140.255 336.263,145.400 337.959 C 149.360 339.263,154.400 340.992,156.600 341.800 C 175.883 348.884,221.576 348.336,241.600 340.781 C 245.010 339.494,249.883 337.794,252.430 337.002 C 255.204 336.139,258.490 334.751,260.630 333.537 C 262.593 332.423,266.069 330.629,268.353 329.550 C 295.833 316.573,329.122 278.398,337.437 250.328 C 338.199 247.758,339.796 242.979,340.987 239.707 C 345.354 227.711,346.883 212.070,346.006 188.367 C 345.372 171.217,344.330 164.705,340.799 155.800 C 340.188 154.260,338.866 150.282,337.862 146.961 C 329.634 119.756,303.167 86.913,277.076 71.530 C 274.834 70.208,271.461 68.153,269.581 66.963 C 267.700 65.772,264.117 63.977,261.618 62.972 C 259.120 61.968,255.618 60.413,253.838 59.518 C 248.965 57.067,246.393 56.207,239.180 54.614 C 235.561 53.815,230.530 52.554,228.000 51.811 C 223.050 50.357,218.879 49.470,213.800 48.790 C 209.554 48.221,190.050 47.966,185.000 48.412 M233.534 162.366 C 236.913 164.090,239.600 168.093,239.600 171.403 C 239.600 174.752,237.812 177.244,227.274 188.580 C 223.603 192.529,219.793 196.669,218.806 197.780 C 217.819 198.891,214.399 202.598,211.206 206.018 C 208.013 209.438,201.984 215.902,197.810 220.384 C 184.252 234.938,184.998 235.049,167.192 215.816 C 150.441 197.722,149.470 195.308,156.422 189.028 C 160.957 184.931,164.068 185.561,170.200 191.817 C 184.957 206.872,185.381 206.732,211.837 178.000 C 227.843 160.616,228.780 159.941,233.534 162.366 " stroke="none" fill="#41cd4d" fill-rule="evenodd"></path></g>
</svg>